
<svg xmlns="http://www.w3.org/2000/svg" viewBox="0 0 100 100" width="100" height="100">
  <circle cx="50" cy="50" r="48" fill="#0077B6" />
  <circle cx="50" cy="50" r="38" fill="#FFDD00" />
  <path d="M50 20c-16.6 0-30 13.4-30 30s13.4 30 30 30 30-13.4 30-30-13.4-30-30-30zm0 50c-11 0-20-9-20-20s9-20 20-20 20 9 20 20-9 20-20 20z" fill="#0077B6" opacity="0.7" />
  <path d="M65 47H54V36c0-1.1-.9-2-2-2h-4c-1.1 0-2 .9-2 2v11H35c-1.1 0-2 .9-2 2v4c0 1.1.9 2 2 2h11v11c0 1.1.9 2 2 2h4c1.1 0 2-.9 2-2V55h11c1.1 0 2-.9 2-2v-4c0-1.1-.9-2-2-2z" fill="#FFFFFF" />
</svg>
